<svg xmlns="http://www.w3.org/2000/svg" viewBox="0 0 22.78 31.06"><defs><style>.a{fill:none;stroke:#000;stroke-miterlimit:10;}</style></defs><path class="a" d="M16.11,1.31V5.48a3.16,3.16,0,0,0,2.95,3.33h4.55" transform="translate(-4.61 -0.47)"/><path d="M14.48,17.71a.5.5,0,1,1-.5.5.5.5,0,0,1,.5-.5m0-1a1.5,1.5,0,1,0,1.5,1.5,1.5,1.5,0,0,0-1.5-1.5Z" transform="translate(-4.61 -0.47)"/><path class="a" d="M26.59,24,19.4,16.91a1,1,0,0,0-1.7.71v9.79a1,1,0,0,0,1.35.94l2.68-1a.2.2,0,0,1,.26.11l1.14,2.94a1,1,0,0,0,1.3.57h0A1,1,0,0,0,25,29.67l-1.14-2.92a.21.21,0,0,1,.12-.26l2.26-.84A1,1,0,0,0,26.59,24Z" transform="translate(-4.61 -0.47)"/><path class="a" d="M23.85,21.41V10.09A3,3,0,0,0,23,8L16.83,1.84A3,3,0,0,0,14.73,1H8.07a3,3,0,0,0-3,3V24.64a3,3,0,0,0,3,3h10" transform="translate(-4.61 -0.47)"/><path class="a" d="M20.35,18a5.86,5.86,0,1,0-2.63,5.09" transform="translate(-4.61 -0.47)"/></svg>