<svg xmlns="http://www.w3.org/2000/svg" viewBox="0 0 121.7 36"><path d="M27.15,0h0C13.813.123,9.228,4.722,9.15,18c.122,13.337,4.721,17.922,18,18h0c13.337-.122,17.922-4.721,18-18C45.028,4.663,40.429.078,27.15,0Zm0,34a16,16,0,1,1,16-16A16,16,0,0,1,27.15,34Z" transform="translate(-9.15 0)"/><path d="M36.5,16.965H32.4a.08.08,0,0,1-.08-.08V8.216a1.591,1.591,0,0,0-1.591-1.591H23.57a1.591,1.591,0,0,0-1.591,1.591v8.669a.079.079,0,0,1-.079.08H17.8a1.591,1.591,0,0,0-1.591,1.591,2.333,2.333,0,0,0,.7,1.666l8.553,8.46a2.4,2.4,0,0,0,3.371,0l8.554-8.46a2.332,2.332,0,0,0,.7-1.666A1.59,1.59,0,0,0,36.5,16.965Z" transform="translate(-9.15 0)"/><path d="M54.77,12.618v.669h-1.1V5.8h1.1V8.964A2.014,2.014,0,0,1,56.377,8.2a2.484,2.484,0,0,1,2.4,2.6,2.485,2.485,0,0,1-2.4,2.6A2.015,2.015,0,0,1,54.77,12.618Zm2.894-1.827a1.495,1.495,0,1,0-2.983,0,1.495,1.495,0,1,0,2.983,0Z" transform="translate(-9.15 0)"/><path d="M60.172,15.373l1.068-2.356L59.094,8.3H60.3l1.526,3.533L63.365,8.3h1.217l-3.2,7.077Z" transform="translate(-9.15 0)"/><path d="M54.347,23.248h-1.2V21.679h1.2V21.02a2.293,2.293,0,0,1,2.407-2.407,3.6,3.6,0,0,1,1.078.132v1.593a1.493,1.493,0,0,0-.647-.108c-.73,0-1.03.3-1.03,1.018v.431h1.677v1.569H56.155v4.42H54.347Z" transform="translate(-9.15 0)"/><path d="M58.205,24.674A3.149,3.149,0,1,1,61.354,27.8,3.125,3.125,0,0,1,58.205,24.674Zm4.478,0a1.333,1.333,0,1,0-1.329,1.437A1.327,1.327,0,0,0,62.683,24.674Z" transform="translate(-9.15 0)"/><path d="M65.621,21.679h1.808v.9a1.534,1.534,0,0,1,1.425-.971,2.163,2.163,0,0,1,.586.072v1.833a2.3,2.3,0,0,0-.8-.144c-.778,0-1.209.6-1.209,1.462v2.838H65.621Z" transform="translate(-9.15 0)"/><path d="M69.874,24.674a2.969,2.969,0,0,1,2.778-3.126,2.093,2.093,0,0,1,1.628.73V18.685h1.808v8.983H74.28v-.6a2.09,2.09,0,0,1-1.628.731A2.969,2.969,0,0,1,69.874,24.674Zm4.55,0a1.37,1.37,0,1,0-1.365,1.485A1.367,1.367,0,0,0,74.424,24.674Z" transform="translate(-9.15 0)"/><path d="M77.206,24.674A3.149,3.149,0,1,1,80.355,27.8,3.125,3.125,0,0,1,77.206,24.674Zm4.478,0a1.334,1.334,0,1,0-1.329,1.437A1.327,1.327,0,0,0,81.684,24.674Z" transform="translate(-9.15 0)"/><path d="M88.62,24.506,87.6,27.668H85.782l-1.975-5.989h1.939l1.042,3.677,1.138-3.677h1.389l1.137,3.677,1.042-3.677h1.94L91.47,27.668H89.65Z" transform="translate(-9.15 0)"/><path d="M94.217,21.679h1.808v.611a1.988,1.988,0,0,1,1.664-.742c1.473,0,2.324,1.09,2.324,2.658v3.462H98.2v-3.15c0-.827-.311-1.329-.97-1.329-.682,0-1.209.479-1.209,1.568v2.911H94.217Z" transform="translate(-9.15 0)"/><path d="M101.428,18.685h1.809v8.983h-1.809Z" transform="translate(-9.15 0)"/><path d="M104.353,24.674A3.149,3.149,0,1,1,107.5,27.8,3.124,3.124,0,0,1,104.353,24.674Zm4.478,0a1.334,1.334,0,1,0-1.329,1.437A1.327,1.327,0,0,0,108.831,24.674Z" transform="translate(-9.15 0)"/><path d="M111.409,24.674a2.968,2.968,0,0,1,2.777-3.126,2.1,2.1,0,0,1,1.629.73v-.6h1.808v5.989h-1.808v-.6a2.094,2.094,0,0,1-1.629.731A2.968,2.968,0,0,1,111.409,24.674Zm4.55,0a1.37,1.37,0,1,0-1.365,1.485A1.367,1.367,0,0,0,115.959,24.674Z" transform="translate(-9.15 0)"/><path d="M118.752,24.674a2.968,2.968,0,0,1,2.778-3.126,2.1,2.1,0,0,1,1.629.73V18.685h1.807v8.983h-1.807v-.6a2.1,2.1,0,0,1-1.629.731A2.968,2.968,0,0,1,118.752,24.674Zm4.55,0a1.37,1.37,0,1,0-1.365,1.485A1.367,1.367,0,0,0,123.3,24.674Z" transform="translate(-9.15 0)"/><path d="M126.024,26.722l1.2-1.09a1.519,1.519,0,0,0,1.294.623c.275,0,.551-.1.551-.335,0-.2-.108-.312-.73-.468l-.4-.1a1.921,1.921,0,0,1-1.7-1.964,2.04,2.04,0,0,1,2.3-1.844,2.448,2.448,0,0,1,2.108.994l-1.174.97a1.151,1.151,0,0,0-.945-.479c-.227,0-.491.083-.491.311,0,.132.035.3.5.431l.551.144c1.09.287,1.761.827,1.761,1.893a2.14,2.14,0,0,1-2.335,1.988A3,3,0,0,1,126.024,26.722Z" transform="translate(-9.15 0)"/></svg>